<svg xmlns="http://www.w3.org/2000/svg" viewBox="0 0 100 100" fill="none">
  <!-- NEWSTACK N-style Logo - Stacked horizontal bars forming an N -->
  <g fill="currentColor">
    <!-- Row 1 - Top -->
    <path d="M12 15 C12 13 14 11 16 11 L42 11 L42 13 L28 27 L12 27 L12 15 Z"/>
    <path d="M58 11 L84 11 C86 11 88 13 88 15 L88 27 L72 27 L58 13 L58 11 Z"/>
    
    <!-- Row 2 - Middle -->
    <path d="M12 33 L26 33 L26 53 L12 53 C10 53 8 51 8 49 L8 37 C8 35 10 33 12 33 Z"/>
    <path d="M32 33 L68 33 L68 53 L32 53 L32 33 Z"/>
    <path d="M74 33 L88 33 C90 33 92 35 92 37 L92 49 C92 51 90 53 88 53 L74 53 L74 33 Z"/>
    
    <!-- Row 3 - Bottom -->
    <path d="M12 59 L26 59 L26 75 L16 75 C14 75 12 73 12 71 L12 59 Z"/>
    <path d="M32 59 L46 59 L46 75 L32 75 L32 59 Z"/>
    <path d="M56 59 L88 59 L88 71 C88 73 86 75 84 75 L48 75 L48 73 L56 59 Z"/>
  </g>
</svg>